<?xml version="1.0"?>
<svg xmlns="http://www.w3.org/2000/svg" xmlns:xlink="http://www.w3.org/1999/xlink" viewBox="0 0 512 512" width="512" height="512"><linearGradient id="a" gradientUnits="userSpaceOnUse" x1="256" x2="256" y1="18" y2="466"><stop offset="0" stop-color="#00efd1"/><stop offset="1" stop-color="#00acea"/></linearGradient><linearGradient id="b" x1="250.004" x2="250.004" xlink:href="#a" y1="18" y2="466"/><linearGradient id="c" x1="291.713" x2="291.713" xlink:href="#a" y1="18" y2="466"/><path d="m414.755 66h-240.87a52.029 52.029 0 0 0 -51.885 51.838v119.162h-45.61c-17.014 0-30.39 13.978-30.39 30.991v96.974c0 17.014 13.376 31.035 30.39 31.035h23.31l9.69 42.195a10.073 10.073 0 0 0 17.119 4.535l42.912-46.73h64.421a31.3 31.3 0 0 0 31.158-31.035v-52.965h9.261l71.58 78.528a10.039 10.039 0 0 0 17.14-4.491l16.989-74.037h34.785c28.513 0 51.245-23.317 51.245-51.829v-142.333c0-28.512-22.732-51.838-51.245-51.838zm-169.755 298.965a11.285 11.285 0 0 1 -11.158 11.035h-68.82a9.914 9.914 0 0 0 -7.372 3.153l-33.014 35.97-7.217-31.423a9.939 9.939 0 0 0 -9.747-7.7h-31.282c-5.99 0-10.39-5.049-10.39-11.035v-96.974c0-5.985 4.4-10.991 10.39-10.991h45.61v3.171a52.022 52.022 0 0 0 51.885 51.829h71.115zm201-104.794c0 17.484-13.76 31.829-31.245 31.829h-42.755a9.946 9.946 0 0 0 -9.747 7.7l-14.5 63.2-61.687-67.681a9.959 9.959 0 0 0 -7.387-3.219h-104.794a32 32 0 0 1 -31.885-31.829v-142.333a32.006 32.006 0 0 1 31.885-31.838h240.87c17.485 0 31.245 14.354 31.245 31.838z" fill="url(#a)"/><path d="m187.44 167h125.128a10 10 0 0 0 0-20h-125.128a10 10 0 0 0 0 20z" fill="url(#b)"/><path d="m395.986 210h-208.546a10 10 0 0 0 0 20h208.546a10 10 0 0 0 0-20z" fill="url(#c)"/></svg>
