<?xml version="1.0" encoding="utf-8"?>
<!-- Generator: Adobe Illustrator 19.0.0, SVG Export Plug-In . SVG Version: 6.00 Build 0)  -->
<svg xmlns="http://www.w3.org/2000/svg" xmlns:xlink="http://www.w3.org/1999/xlink" version="1.1" id="Layer_1" x="0px" y="0px" viewBox="0 2 98 98" style="enable-background:new 0 2 98 98;" xml:space="preserve" width="512" height="512">
<style type="text/css">
	.st0{fill:url(#SVGID_1_);}
</style>
<linearGradient id="SVGID_1_" gradientUnits="userSpaceOnUse" x1="49" y1="9.5003" x2="49" y2="92.4997">
	<stop offset="0" style="stop-color:#00EFD1"/>
	<stop offset="1" style="stop-color:#00ACEA"/>
</linearGradient>
<path class="st0" d="M84,10.1c-0.7-0.6-1.7-0.8-2.6-0.6l-45,11.1c-1.3,0.3-2.3,1.5-2.3,2.9v47.2c-2.2-1.3-4.8-2.1-7.7-2.1  c-7.6,0-13.7,5.3-13.7,11.9s6.1,11.9,13.7,11.9s13.7-5.3,13.7-11.9v-35l39-9.6v15.5c-2.2-1.3-4.8-2.1-7.7-2.1  c-7.6,0-13.7,5.3-13.7,11.9s6.1,11.9,13.7,11.9S85.2,68,85.2,61.4V12.5C85.2,11.6,84.8,10.7,84,10.1z M26.5,86.5  c-4.2,0-7.7-2.6-7.7-5.9c0-3.3,3.5-5.9,7.7-5.9s7.7,2.6,7.7,5.9C34.2,83.9,30.7,86.5,26.5,86.5z M40.2,39.5V25.9l39-9.6v13.5  L40.2,39.5z M71.5,67.3c-4.2,0-7.7-2.6-7.7-5.9c0-3.3,3.5-5.9,7.7-5.9s7.7,2.6,7.7,5.9C79.2,64.7,75.7,67.3,71.5,67.3z"/>
</svg>
